<svg width="20" height="18" viewBox="0 0 20 18" fill="none" xmlns="http://www.w3.org/2000/svg">
<path d="M18.9709 15.7686L10.9085 0.796163C10.3371 -0.265388 8.81476 -0.265388 8.24283 0.796163L0.180913 15.7686C0.0568348 15.999 -0.00537229 16.2577 0.00036364 16.5194C0.00609957 16.781 0.0795826 17.0368 0.21364 17.2616C0.347698 17.4864 0.537749 17.6726 0.765244 17.802C0.992738 17.9314 1.2499 17.9996 1.51164 18H17.6378C17.8998 18 18.1572 17.9321 18.3851 17.8028C18.6129 17.6736 18.8033 17.4874 18.9376 17.2626C19.0719 17.0377 19.1456 16.7818 19.1515 16.52C19.1573 16.2581 19.0951 15.9992 18.9709 15.7686ZM9.57592 15.682C9.38879 15.682 9.20587 15.6265 9.05028 15.5225C8.89469 15.4186 8.77343 15.2708 8.70182 15.0979C8.63021 14.9251 8.61147 14.7348 8.64798 14.5513C8.68448 14.3678 8.77459 14.1992 8.90691 14.0669C9.03923 13.9345 9.20781 13.8444 9.39134 13.8079C9.57487 13.7714 9.7651 13.7902 9.93798 13.8618C10.1109 13.9334 10.2586 14.0546 10.3626 14.2102C10.4666 14.3658 10.522 14.5487 10.522 14.7359C10.522 14.9868 10.4224 15.2275 10.2449 15.4049C10.0675 15.5823 9.82685 15.682 9.57592 15.682ZM10.6034 6.16636L10.3319 11.9377C10.3319 12.1385 10.2521 12.331 10.1102 12.4729C9.96824 12.6149 9.77572 12.6946 9.57497 12.6946C9.37423 12.6946 9.18171 12.6149 9.03977 12.4729C8.89782 12.331 8.81807 12.1385 8.81807 11.9377L8.54654 6.16873C8.54043 6.03087 8.56215 5.8932 8.61039 5.76391C8.65863 5.63463 8.7324 5.51638 8.82731 5.41621C8.92222 5.31605 9.03633 5.23602 9.16283 5.18089C9.28933 5.12577 9.42564 5.09667 9.56362 5.09535H9.57355C9.71248 5.09528 9.84998 5.12335 9.97775 5.17788C10.1055 5.23241 10.2209 5.31226 10.317 5.41262C10.4131 5.51297 10.4878 5.63175 10.5367 5.76178C10.5856 5.89182 10.6077 6.03041 10.6015 6.1692L10.6034 6.16636Z" fill="#F9463B"/>
</svg>
